<svg width="754" height="79" viewBox="0 0 754 79" fill="none" xmlns="http://www.w3.org/2000/svg">
<g clip-path="url(#clip0_1_12)">
<path d="M65.1195 58.4866L77.7817 78.9873H56.9796L46.1263 60.2955H17.4858V78.6858H0V10.2499H53.9648C69.6417 10.2499 80.1935 20.1988 80.1935 35.2727C79.892 46.4275 74.4654 54.8689 65.1195 58.4866ZM17.4858 45.523H48.8397C54.2663 45.523 62.4062 45.523 62.4062 35.2727C62.4062 25.0224 54.2663 25.0224 48.8397 25.0224H17.4858V45.523Z" fill="black"/>
<path d="M108.229 24.118V37.9861H163.099V50.6482H108.229V64.5163H163.099V78.3843H90.7437V10.25H163.099V24.118H108.229Z" fill="black"/>
<path d="M266.809 10.25L231.536 78.6858H207.418L172.145 10.25H192.042L219.477 65.7222L246.911 10.25H266.809Z" fill="black"/>
<path d="M314.442 64.2148H273.441L266.205 78.6858H246.911L281.882 10.25H305.699L340.972 78.6858H321.376L314.442 64.2148ZM307.81 50.9497L293.942 23.2136L280.074 50.9497H307.81Z" fill="black"/>
<path d="M455.235 78.6858H437.749V31.655L409.41 78.6858H396.748L367.805 31.655V78.6858H350.32V10.25H374.137L402.777 58.4867L431.418 10.25H455.235V78.6858Z" fill="black"/>
<path d="M548.09 35.2728C548.09 50.6482 537.538 60.2956 521.861 60.2956H485.684V78.6858H468.198V10.25H522.163C537.237 10.25 548.09 20.1988 548.09 35.2728ZM530.303 35.2728C530.303 25.0225 522.163 25.0225 516.736 25.0225H485.382V45.5231H516.736C522.163 45.5231 530.303 45.5231 530.303 35.2728Z" fill="black"/>
<path d="M629.792 63.9133V78.6858H559.246V10.25H576.732V63.9133H629.792Z" fill="black"/>
<path d="M611.4 10.25H632.504L658.732 41.6038L684.961 10.25H706.065L667.174 56.3763V78.9873H649.688V56.3763L611.4 10.25Z" fill="black"/>
<path d="M719.03 17.1843C719.03 7.53698 726.869 -7.62939e-06 736.516 -7.62939e-06C746.163 -7.62939e-06 754.002 7.53698 754.002 17.1843C754.002 26.8317 746.163 34.3686 736.516 34.3686C726.869 34.3686 719.03 26.8317 719.03 17.1843ZM750.083 17.1843C750.083 9.64733 744.053 3.61775 736.516 3.61775C728.979 3.61775 722.949 9.64733 722.949 17.1843C722.949 24.7213 728.979 30.7509 736.516 30.7509C744.053 30.7509 750.083 24.7213 750.083 17.1843ZM729.883 25.0228V8.7429H738.023C741.34 8.7429 743.751 10.8532 743.751 13.868C743.751 16.5814 742.244 18.3902 739.832 18.6917L744.656 25.3243H740.435L736.516 19.2947H733.501V25.3243H729.883V25.0228ZM733.501 16.2799H737.42C739.229 16.2799 740.134 15.3754 740.134 13.868C740.134 12.3606 739.229 11.7577 737.42 11.7577H733.501V16.2799Z" fill="black"/>
</g>
<defs>
<clipPath id="clip0_1_12">
<rect width="754" height="78.6861" fill="white"/>
</clipPath>
</defs>
</svg>
